HIERARCHY
ROOT Hips
{
 OFFSET 0.000000 0.000000 0.000000
 CHANNELS 6 Xposition Yposition Zposition Yrotation Xrotation Zrotation
 JOINT Chest
 { 
  OFFSET 0.000000 9.630565 -1.070063
  CHANNELS 3 Yrotation Xrotation Zrotation
  JOINT Chest2
  {
   OFFSET 0.000000 10.515092 0.000000
   CHANNELS 3 Yrotation Xrotation Zrotation
   JOINT Chest3
   {
    OFFSET 0.000000 9.604626 -0.030425
    CHANNELS 3 Yrotation Xrotation Zrotation
    JOINT Chest4
    {
     OFFSET 0.000000 9.593896 -0.030455
     CHANNELS 3 Yrotation Xrotation Zrotation
     JOINT Neck
     {
      OFFSET 0.000000 13.488791 0.000000
      CHANNELS 3 Yrotation Xrotation Zrotation
      JOINT Head
      {
       OFFSET 0.000000 10.704499 -0.075716
       CHANNELS 3 Yrotation Xrotation Zrotation
       End Site
       {
        OFFSET 0.000000 21.416259 -0.029166
       }
      }
     }
     JOINT RightCollar
     {
      OFFSET -3.054452 7.579305 0.000000
      CHANNELS 3 Yrotation Xrotation Zrotation
      JOINT RightShoulder
      {
       OFFSET -14.776674 0.000000 0.000000
       CHANNELS 3 Yrotation Xrotation Zrotation
       JOINT RightElbow
       {
        OFFSET -30.982767 0.000000 0.000000
        CHANNELS 3 Yrotation Xrotation Zrotation
        JOINT RightWrist
        {
         OFFSET -25.330466 0.000000 0.000000
         CHANNELS 3 Yrotation Xrotation Zrotation
         JOINT RightFinger0
         {
          OFFSET -2.833226 0.000000 2.791865
          CHANNELS 3 Yrotation Xrotation Zrotation
          JOINT RightFinger01
          {
           OFFSET -3.663730 0.000000 0.000000
           CHANNELS 3 Yrotation Xrotation Zrotation
           JOINT RightFinger02
           {
            OFFSET -3.215815 0.000000 0.000000
            CHANNELS 3 Yrotation Xrotation Zrotation
            End Site
            {
             OFFSET -3.215815 0.000000 0.000000
            }
           }
          }
         }
         JOINT RightFinger1
         {
          OFFSET -9.466533 0.000000 1.251169
          CHANNELS 3 Yrotation Xrotation Zrotation
          JOINT RightFinger11
          {
           OFFSET -4.280860 0.000000 0.000000
           CHANNELS 3 Yrotation Xrotation Zrotation
           JOINT RightFinger12
           {
            OFFSET -2.336894 0.000000 0.000000
            CHANNELS 3 Yrotation Xrotation Zrotation
            End Site
            {
             OFFSET -2.099069 0.000000 0.000000
            }
           }
          }
         }
         JOINT RightFinger2
         {
          OFFSET -9.482001 0.000000 0.000000
          CHANNELS 3 Yrotation Xrotation Zrotation
          JOINT RightFinger21
          {
           OFFSET -4.684129 0.000000 0.000000
           CHANNELS 3 Yrotation Xrotation Zrotation
           JOINT RightFinger22
           {
            OFFSET -2.771185 0.000000 0.000000
            CHANNELS 3 Yrotation Xrotation Zrotation
            End Site
            {
             OFFSET -2.202471 0.000000 0.000000
            }
           }
          }
         }
         JOINT RightFinger3
         {
          OFFSET -9.119393 0.000000 -1.261509
          CHANNELS 3 Yrotation Xrotation Zrotation
          JOINT RightFinger31
          {
           OFFSET -4.446304 0.000000 0.000000
           CHANNELS 3 Yrotation Xrotation Zrotation
           JOINT RightFinger32
           {
            OFFSET -2.636761 0.000000 0.000000
            CHANNELS 3 Yrotation Xrotation Zrotation
            End Site
            {
             OFFSET -2.223152 0.000000 0.000000
            }
           }
          }
         }
         JOINT RightFinger4
         {
          OFFSET -8.375151 0.000000 -2.254173
          CHANNELS 3 Yrotation Xrotation Zrotation
          JOINT RightFinger41
          {
           OFFSET -3.712147 0.000000 0.000000
           CHANNELS 3 Yrotation Xrotation Zrotation
           JOINT RightFinger42
           {
            OFFSET -2.016347 0.000000 0.000000
            CHANNELS 3 Yrotation Xrotation Zrotation
            End Site
            {
             OFFSET -2.140430 0.000000 0.000000
            }
           }
          }
         }
        }
       }
      }
     }
     JOINT LeftCollar
     {
      OFFSET 3.054452 7.579305 0.000000
      CHANNELS 3 Yrotation Xrotation Zrotation
      JOINT LeftShoulder
      {
       OFFSET 14.776674 0.000000 0.000000
       CHANNELS 3 Yrotation Xrotation Zrotation
       JOINT LeftElbow
       {
        OFFSET 30.982767 0.000000 0.000000
        CHANNELS 3 Yrotation Xrotation Zrotation
        JOINT LeftWrist
        {
         OFFSET 25.330466 0.000000 0.000000
         CHANNELS 3 Yrotation Xrotation Zrotation
         JOINT LeftFinger0
         {
          OFFSET 2.833226 0.000000 2.791865
          CHANNELS 3 Yrotation Xrotation Zrotation
          JOINT LeftFinger01
          {
           OFFSET 3.663730 0.000000 0.000000
           CHANNELS 3 Yrotation Xrotation Zrotation
           JOINT LeftFinger02
           {
            OFFSET 3.215815 0.000000 0.000000
            CHANNELS 3 Yrotation Xrotation Zrotation
            End Site
            {
             OFFSET 3.215815 0.000000 0.000000
            }
           }
          }
         }
         JOINT LeftFinger1
         {
          OFFSET 9.466533 0.000000 1.251169
          CHANNELS 3 Yrotation Xrotation Zrotation
          JOINT LeftFinger11
          {
           OFFSET 4.280860 0.000000 0.000000
           CHANNELS 3 Yrotation Xrotation Zrotation
           JOINT LeftFinger12
           {
            OFFSET 2.336894 0.000000 0.000000
            CHANNELS 3 Yrotation Xrotation Zrotation
            End Site
            {
             OFFSET 2.099069 0.000000 0.000000
            }
           }
          }
         }
         JOINT LeftFinger2
         {
          OFFSET 9.482001 0.000000 0.000000
          CHANNELS 3 Yrotation Xrotation Zrotation
          JOINT LeftFinger21
          {
           OFFSET 4.684129 0.000000 0.000000
           CHANNELS 3 Yrotation Xrotation Zrotation
           JOINT LeftFinger22
           {
            OFFSET 2.771185 0.000000 0.000000
            CHANNELS 3 Yrotation Xrotation Zrotation
            End Site
            {
             OFFSET 2.202471 0.000000 0.000000
            }
           }
          }
         }
         JOINT LeftFinger3
         {
          OFFSET 9.119393 0.000000 -1.261509
          CHANNELS 3 Yrotation Xrotation Zrotation
          JOINT LeftFinger31
          {
           OFFSET 4.446304 0.000000 0.000000
           CHANNELS 3 Yrotation Xrotation Zrotation
           JOINT LeftFinger32
           {
            OFFSET 2.636761 0.000000 0.000000
            CHANNELS 3 Yrotation Xrotation Zrotation
            End Site
            {
             OFFSET 2.223152 0.000000 0.000000
            }
           }
          }
         }
         JOINT LeftFinger4
         {
          OFFSET 8.375151 0.000000 -2.254173
          CHANNELS 3 Yrotation Xrotation Zrotation
          JOINT LeftFinger41
          {
           OFFSET 3.712147 0.000000 0.000000
           CHANNELS 3 Yrotation Xrotation Zrotation
           JOINT LeftFinger42
           {
            OFFSET 2.016347 0.000000 0.000000
            CHANNELS 3 Yrotation Xrotation Zrotation
            End Site
            {
             OFFSET 2.140430 0.000000 0.000000
            }
           }
          }
         }
        }
       }
      }
     }
    }
   }
  }
 }
 JOINT RightHip
 {
  OFFSET -8.040601 0.075541 -0.008393
  CHANNELS 3 Yrotation Xrotation Zrotation
  JOINT RightKnee
  {
   OFFSET 0.000000 -40.488015 -0.007192
   CHANNELS 3 Yrotation Xrotation Zrotation
   JOINT RightAnkle
   {
    OFFSET 0.000000 -39.536317 -0.012122
    CHANNELS 3 Yrotation Xrotation Zrotation
    JOINT RightToe
    {
     OFFSET 0.000000 -7.815405 17.988983
     CHANNELS 3 Yrotation Xrotation Zrotation
     End Site
     {
      OFFSET 0.000000 -2.689051 7.496003
     }
    }
   }
  }
 }
 JOINT LeftHip
 {
  OFFSET 8.040601 0.073397 -0.008155
  CHANNELS 3 Yrotation Xrotation Zrotation
  JOINT LeftKnee
  {
   OFFSET 0.000000 -40.488015 -0.007192
   CHANNELS 3 Yrotation Xrotation Zrotation
   JOINT LeftAnkle
   {
    OFFSET 0.000000 -39.536317 -0.012122
    CHANNELS 3 Yrotation Xrotation Zrotation
    JOINT LeftToe
    {
     OFFSET 0.000000 -7.815405 17.988983
     CHANNELS 3 Yrotation Xrotation Zrotation
     End Site
     {
      OFFSET 0.000000 -2.689051 7.496003
     }
    }
   }
  }
 }
}
MOTION
Frames: 7
Frame Time: 0.016667
0.000000 90.408098 0.000000 0.000000 6.340192 0.000000 0.000000 -6.340192 0.000000 0.000000 -5.826342 0.000000 0.000000 -0.005910 0.000000 0.000000 5.832252 0.000000 0.000000 12.610213 0.000000 0.000000 -9.243752 0.000000 0.000000 0.000000 0.000000 0.000000 0.000000 0.000000 2.309063 0.000000 0.000000 -2.309063 0.000000 0.000000 0.000000 0.000000 0.000000 0.000000 0.000000 0.000000 0.000000 0.000000 0.000000 0.000000 0.000000 0.000000 0.000000 0.000000 0.000000 0.000000 0.000000 0.000000 0.000000 0.000000 0.000000 0.000000 0.000000 0.000000 0.000000 0.000000 0.000000 0.000000 0.000000 0.000000 0.000000 0.000000 0.000000 0.000000 0.000000 0.000000 0.000000 0.000000 0.000000 0.000000 0.000000 0.000000 0.000000 0.000000 0.000000 0.000000 0.000000 0.000000 0.000000 0.000000 0.000000 -2.309063 0.000000 0.000000 2.309063 0.000000 0.000000 0.000000 0.000000 0.000000 0.000000 0.000000 0.000000 0.000000 0.000000 0.000000 0.000000 0.000000 0.000000 0.000000 0.000000 0.000000 0.000000 0.000000 0.000000 0.000000 0.000000 0.000000 0.000000 0.000000 0.000000 0.000000 0.000000 0.000000 0.000000 0.000000 0.000000 0.000000 0.000000 0.000000 0.000000 0.000000 0.000000 0.000000 0.000000 0.000000 0.000000 0.000000 0.000000 0.000000 0.000000 0.000000 0.000000 -3.591006 0.000000 0.000000 1.872585 0.000000 0.000000 -4.621771 0.000000 0.000000 0.000000 0.000000 0.000000 -3.587706 0.000000 0.000000 1.905768 0.000000 0.000000 -4.658254 0.000000 0.000000 0.000000 0.000000
0.000000 125.000000 0.000000 74.940568 13.734171 -0.122973 -1.069780 -6.336800 1.479364 -0.520381 -8.645716 0.648419 -0.515153 -2.825523 0.595532 -0.338310 3.716861 0.444773 -0.874722 16.570858 4.341892 -3.146285 -5.074827 8.359284 0.628137 -8.046105 5.819094 2.948337 6.444121 76.459933 21.984506 9.253873 11.593942 -14.037472 23.716053 7.624331 65.556439 61.858384 41.387424 -0.015557 0.001872 19.024938 -0.015195 -0.003703 18.731670 -1.288369 -3.744202 39.493774 1.007418 1.575988 20.094073 1.094448 1.570695 7.969504 -2.904724 -0.342392 25.563735 1.959681 2.630928 19.309422 1.887882 2.761775 12.239149 -5.489297 -2.027625 27.615780 -0.502552 -0.735126 17.967419 -0.484347 -0.766098 11.430386 -10.168681 2.517623 28.388685 -0.197828 -0.593076 9.343862 -0.189318 -0.599413 5.945080 0.606797 -8.805709 -13.501881 17.671030 5.617901 -72.993166 -21.923141 29.322387 -11.148497 8.994366 8.182532 -13.583170 -66.460758 67.730721 -38.916535 0.000001 0.000015 -2.660388 -0.000005 0.000000 8.671503 1.205848 -1.777224 -16.864114 -1.486229 2.431395 -16.324937 -1.427718 2.515119 -10.355731 4.063599 2.316921 -14.062787 -1.603974 3.563323 -12.399022 -1.532841 3.632395 -7.840177 4.767648 1.973471 -7.640493 -0.720727 2.262087 -8.944182 -0.688692 2.284289 -5.677812 9.126747 2.647496 -6.652343 -0.323245 1.834935 -5.015398 -0.308518 1.840514 -3.186615 0.000000 0.000000 0.000000 0.000000 0.000000 0.000000 0.000000 0.000000 0.000000 0.000000 0.000000 0.000000 0.000000 0.000000 0.000000 0.000000 0.000000 0.000000 0.000000 0.000000 0.000000 0.000000 0.000000 0.000000
0.000000 125.000000 0.000000 74.910069 13.648897 -0.132399 -1.063098 -6.279255 1.445595 -0.516553 -8.620060 0.633496 -0.511386 -2.799863 0.580998 -0.336683 3.736130 0.433914 -0.852490 16.565237 4.363761 -3.113140 -5.085542 8.392358 0.612089 -8.012954 5.757195 2.999968 6.360199 76.578852 22.118905 9.238640 11.641754 -14.217435 23.742027 7.613363 65.545222 61.862167 41.399024 -0.015552 0.001865 19.020444 -0.015230 -0.003787 18.724832 -1.300043 -3.726112 39.556395 1.017973 1.589699 20.117830 1.105501 1.584645 7.960895 -2.915756 -0.347061 25.527426 1.967206 2.620888 19.431470 1.895422 2.753071 12.316737 -5.489668 -2.043920 27.635386 -0.510981 -0.743484 18.048721 -0.492503 -0.775109 11.482045 -10.161779 2.512415 28.390879 -0.197862 -0.593431 9.340532 -0.189364 -0.599751 5.942994 0.605424 -8.752095 -13.388722 17.637004 5.482339 -73.099878 -21.875933 29.323824 -11.107661 9.044584 8.181201 -13.571788 -66.543719 67.752091 -39.018182 0.000014 -0.000018 -2.661614 -0.000004 0.000004 8.677706 1.193921 -1.775218 -16.897283 -1.479775 2.435897 -16.236974 -1.421420 2.518814 -10.299841 4.060442 2.315519 -14.062265 -1.603986 3.563250 -12.399312 -1.532858 3.632307 -7.840361 4.772630 1.951327 -7.625461 -0.729125 2.240061 -9.129437 -0.696815 2.263001 -5.795662 9.142870 2.660203 -6.710046 -0.320081 1.845143 -4.939505 -0.305468 1.850582 -3.138356 0.000000 0.000000 -0.000000 0.000000 0.000000 -0.000000 0.000000 0.000000 -0.000000 0.000000 0.000000 -0.000000 0.000000 0.000000 -0.000000 0.000000 0.000000 -0.000000 0.000000 0.000000 -0.000000 0.000000 0.000000 -0.000000
0.000000 125.000000 0.000000 74.881533 13.571884 -0.139707 -1.057186 -6.227285 1.414632 -0.513128 -8.596889 0.619807 -0.508015 -2.776688 0.567659 -0.335253 3.753533 0.423948 -0.831511 16.560433 4.381473 -3.080812 -5.094918 8.418120 0.596332 -7.983322 5.699558 3.053807 6.280689 76.689501 22.238959 9.218923 11.682969 -14.386930 23.768488 7.602186 65.537065 61.865497 41.404037 -0.015514 0.001880 19.016329 -0.015178 -0.003738 18.717089 -1.307933 -3.722953 39.560334 1.013411 1.586597 20.075063 1.100373 1.581546 7.939642 -2.921201 -0.340836 25.515577 1.976374 2.622399 19.496535 1.904399 2.755641 12.357831 -5.482138 -2.049502 27.625012 -0.511092 -0.742916 18.063754 -0.492625 -0.774575 11.491606 -10.164910 2.516238 28.390161 -0.197438 -0.592082 9.341562 -0.188952 -0.598394 5.943643 0.605919 -8.704132 -13.286053 17.601456 5.359357 -73.197814 -21.830855 29.319179 -11.068503 9.082000 8.188920 -13.553632 -66.536932 67.759345 -38.989807 -0.000008 0.000015 -2.690817 0.000002 -0.000000 8.573771 1.193867 -1.775375 -16.897453 -1.479644 2.435774 -16.236442 -1.421277 2.518672 -10.299547 4.058158 2.314500 -14.061775 -1.604009 3.563187 -12.399689 -1.532872 3.632243 -7.840621 4.755664 1.946519 -7.623206 -0.729404 2.239469 -9.135316 -0.697105 2.262410 -5.799408 9.111989 2.652624 -6.661617 -0.327967 1.837699 -5.080053 -0.313030 1.843401 -3.227689 0.000000 -0.000000 0.000000 0.000000 -0.000000 0.000000 0.000000 -0.000000 0.000000 0.000000 -0.000000 0.000000 0.000000 -0.000000 0.000000 0.000000 -0.000000 0.000000 0.000000 -0.000000 0.000000 0.000000 -0.000000 0.000000
0.000000 125.000000 0.000000 74.857856 13.515533 -0.141813 -1.053238 -6.189226 1.390707 -0.510742 -8.579919 0.609218 -0.505668 -2.759716 0.557314 -0.334342 3.766280 0.416215 -0.813668 16.557719 4.388817 -3.050530 -5.100862 8.425641 0.581367 -7.962505 5.652566 3.113545 6.212448 76.779665 22.323169 9.188289 11.707819 -14.530306 23.796176 7.590312 65.503759 61.869258 41.386946 -0.015417 0.001901 19.008929 -0.015095 -0.003707 18.705640 -1.350276 -3.705214 39.578386 1.008922 1.579785 20.064049 1.094951 1.574969 7.923188 -2.933887 -0.325178 25.500202 1.992913 2.627094 19.601655 1.920543 2.762178 12.424124 -5.450217 -2.092913 27.646902 -0.519024 -0.751984 18.113712 -0.500294 -0.784233 11.523259 -10.161425 2.523531 28.392381 -0.194501 -0.583853 9.332648 -0.186143 -0.590077 5.937974 0.610587 -8.670299 -13.209543 17.561635 5.267889 -73.273932 -21.791104 29.299346 -11.033576 9.087413 8.219266 -13.518586 -66.469283 67.767420 -38.946335 0.000008 0.000000 -2.634825 -0.000005 0.000011 8.763919 1.193857 -1.775375 -16.897440 -1.479635 2.435771 -16.236461 -1.421274 2.518674 -10.299518 4.058149 2.314499 -14.061757 -1.603997 3.563186 -12.399685 -1.532885 3.632249 -7.840638 4.759912 1.944248 -7.809052 -0.729707 2.240519 -9.134700 -0.697376 2.263478 -5.798991 9.112446 2.651547 -6.643673 -0.330692 1.834766 -5.129716 -0.315641 1.840599 -3.259274 0.000000 0.000000 -0.000000 0.000000 0.000000 -0.000000 0.000000 0.000000 -0.000000 0.000000 0.000000 -0.000000 0.000000 0.000000 -0.000000 0.000000 0.000000 -0.000000 0.000000 0.000000 -0.000000 0.000000 0.000000 -0.000000
0.000000 125.000000 0.000000 74.837358 13.482065 -0.132810 -1.052480 -6.166365 1.373123 -0.509918 -8.569725 0.601394 -0.504860 -2.749520 0.549575 -0.334370 3.773938 0.410422 -0.795791 16.558494 4.379862 -3.014257 -5.101421 8.402740 0.567238 -7.959238 5.613669 3.202545 6.152282 76.863411 22.350895 9.133063 11.686931 -14.646428 23.823553 7.585886 65.486185 61.862948 41.460429 -0.015530 0.001856 18.976912 -0.015191 -0.003726 18.648348 -1.344100 -3.717760 39.617016 1.008738 1.576827 20.071075 1.093922 1.572577 7.886587 -2.917404 -0.354738 25.477651 1.988659 2.615143 19.640611 1.916583 2.750197 12.449247 -5.449143 -2.100547 27.658078 -0.521760 -0.756743 18.097858 -0.502928 -0.789128 11.513157 -10.159858 2.523025 28.404813 -0.193965 -0.583271 9.316902 -0.185622 -0.589466 5.927950 0.624724 -8.653623 -13.161185 17.491173 5.208665 -73.331728 -21.736217 29.258948 -10.991543 9.056590 8.278954 -13.475215 -66.480287 67.765606 -38.955757 0.000008 -0.000000 -2.641324 -0.000003 0.000018 8.741946 1.191079 -1.779375 -16.889776 -1.480337 2.434051 -16.253187 -1.421971 2.517078 -10.310161 4.058215 2.314491 -14.062266 -1.604031 3.563179 -12.399946 -1.532918 3.632246 -7.840803 4.759369 1.945356 -7.819035 -0.726829 2.241800 -9.095188 -0.694607 2.264573 -5.773902 9.111951 2.647480 -6.628497 -0.332654 1.829124 -5.175818 -0.317513 1.835041 -3.288598 0.000000 -0.000000 0.000000 0.000000 -0.000000 0.000000 0.000000 -0.000000 0.000000 0.000000 -0.000000 0.000000 0.000000 -0.000000 0.000000 0.000000 -0.000000 0.000000 0.000000 -0.000000 0.000000 0.000000 -0.000000 0.000000
0.000000 125.000000 0.000000 74.823741 13.477992 -0.116467 -1.054535 -6.163276 1.365568 -0.510594 -8.568344 0.597986 -0.505530 -2.748141 0.546098 -0.335155 3.774976 0.407809 -0.782375 16.562273 4.356175 -2.980899 -5.097028 8.353925 0.554280 -7.968526 5.589906 3.300148 6.108249 76.918142 22.327730 9.062506 11.642863 -14.725445 23.852702 7.580318 65.486187 61.862946 41.460430 -0.015530 0.001856 18.976913 -0.015191 -0.003726 18.648349 -1.344100 -3.717760 39.617016 1.008738 1.576827 20.071075 1.093922 1.572577 7.886587 -2.917404 -0.354738 25.477651 1.988659 2.615143 19.640612 1.916583 2.750197 12.449248 -5.449143 -2.100547 27.658078 -0.521760 -0.756743 18.097858 -0.502928 -0.789128 11.513157 -10.159858 2.523025 28.404813 -0.193965 -0.583271 9.316902 -0.185622 -0.589466 5.927950 0.644484 -8.657038 -13.149983 17.414337 5.194280 -73.358596 -21.688959 29.196943 -10.955610 8.980343 8.370915 -13.407968 -66.538968 67.755188 -39.006059 0.000004 -0.000002 -2.674044 -0.000006 0.000026 8.631333 1.177184 -1.799372 -16.851450 -1.483821 2.425429 -16.336814 -1.425441 2.509086 -10.363385 4.058546 2.314448 -14.064810 -1.604197 3.563148 -12.401255 -1.533087 3.632225 -7.841637 4.757968 1.947933 -7.847854 -0.720284 2.244957 -9.004466 -0.688310 2.267282 -5.716283 9.101824 2.631197 -6.616141 -0.341135 1.802977 -5.381342 -0.325638 1.809286 -3.419310 -0.000000 0.000000 -0.000000 -0.000000 0.000000 -0.000000 -0.000000 0.000000 -0.000000 -0.000000 0.000000 -0.000000 -0.000000 0.000000 -0.000000 -0.000000 0.000000 -0.000000 -0.000000 0.000000 -0.000000 -0.000000 0.000000 -0.000000
